# xmcd
#
# Track frame offsets: 
#        150
#        20264
#        49600
#        68684
#        79666
#        97807
#        111742
#        141273
#        160363
#        168064
#        189663
#        210039
#        221610
#        245595
#        264348
#        281707
#        302836
#        319453
#
# Disc length: 4535 seconds
#
# Revision: 1
# Processed by: cddbd v1.5.2PL0 Copyright (c) Steve Scherf et al.
# Submitted via: ExactAudioCopy v0.99pb4
#
DISCID=fc11b512
DTITLE=Various Artist - Miss Yetti - More Favorite Tools
DYEAR=2002
DGENRE=Techno
TTITLE0=Pop Up - Something
TTITLE1=Alexander Kowalski feat. Raz Ohara - All I Got To Know
TTITLE2=Danilo Vigorito - Scena Uno
TTITLE3=Hi-Lo - Central (Gerhard Potuznik Remix)
TTITLE4=Sven Dedek - Organ Mind
TTITLE5=Neolectric - Studio
TTITLE6=Michael Mayer - Love Is Stronger Than Pride
TTITLE7=FC Kahuna - Drone
TTITLE8=Dietrich Schoenemann - Motive Two
TTITLE9=Codec and Flexor - Time Has Changed
TTITLE10=Charles Manier - Change You
TTITLE11=Brtschitsch and Galluzzi - Tango Erotica
TTITLE12=Pom Pom - Pom Pom 5
TTITLE13=Brtschitsch and Galluzzi - Grammophon
TTITLE14=Acrosome - Running On The Weel
TTITLE15=Terence Fixmer - Red Section
TTITLE16=DJ Rok - Blue Flame
TTITLE17=Miss Yetti - Der Zauberer Ist Tot
EXTD=
EXTT0=
EXTT1=
EXTT2=
EXTT3=
EXTT4=
EXTT5=
EXTT6=
EXTT7=
EXTT8=
EXTT9=
EXTT10=
EXTT11=
EXTT12=
EXTT13=
EXTT14=
EXTT15=
EXTT16=
EXTT17=
PLAYORDER=
